<svg width="729" height="236" viewBox="0 0 729 236" fill="none" xmlns="http://www.w3.org/2000/svg">
<path d="M227.733 155.633C226.267 155.633 225.033 155.133 224.033 154.133C223.033 153.133 222.533 151.9 222.533 150.433V87.1334H200.933C199.533 87.1334 198.367 86.7 197.433 85.8334C196.567 84.9 196.133 83.7334 196.133 82.3334C196.133 80.9334 196.567 79.8 197.433 78.9334C198.367 78 199.533 77.5334 200.933 77.5334H254.433C255.833 77.5334 256.967 78 257.833 78.9334C258.767 79.8 259.233 80.9334 259.233 82.3334C259.233 83.7334 258.767 84.9 257.833 85.8334C256.967 86.7 255.833 87.1334 254.433 87.1334H232.933V150.433C232.933 151.9 232.433 153.133 231.433 154.133C230.433 155.133 229.2 155.633 227.733 155.633ZM279.508 156.033C274.108 156.033 269.341 154.867 265.208 152.533C261.074 150.133 257.808 146.867 255.408 142.733C253.074 138.533 251.908 133.733 251.908 128.333C251.908 122.867 253.074 118.067 255.408 113.933C257.808 109.733 261.074 106.467 265.208 104.133C269.341 101.733 274.108 100.533 279.508 100.533C284.841 100.533 289.574 101.733 293.708 104.133C297.841 106.467 301.074 109.733 303.408 113.933C305.808 118.067 307.008 122.867 307.008 128.333C307.008 133.733 305.841 138.533 303.508 142.733C301.174 146.867 297.941 150.133 293.808 152.533C289.674 154.867 284.908 156.033 279.508 156.033ZM279.508 147.033C282.974 147.033 286.041 146.233 288.708 144.633C291.374 143.033 293.441 140.833 294.908 138.033C296.441 135.233 297.208 132 297.208 128.333C297.208 124.667 296.441 121.433 294.908 118.633C293.441 115.767 291.374 113.533 288.708 111.933C286.041 110.333 282.974 109.533 279.508 109.533C276.041 109.533 272.974 110.333 270.308 111.933C267.641 113.533 265.541 115.767 264.008 118.633C262.474 121.433 261.708 124.667 261.708 128.333C261.708 132 262.474 135.233 264.008 138.033C265.541 140.833 267.641 143.033 270.308 144.633C272.974 146.233 276.041 147.033 279.508 147.033ZM345.188 156.133C340.588 156.133 336.455 155.167 332.788 153.233C329.188 151.233 326.321 148.333 324.188 144.533C322.121 140.733 321.088 136.067 321.088 130.533V105.933C321.088 104.467 321.555 103.267 322.488 102.333C323.488 101.333 324.721 100.833 326.188 100.833C327.655 100.833 328.855 101.333 329.788 102.333C330.788 103.267 331.288 104.467 331.288 105.933V130.533C331.288 136.2 332.788 140.367 335.788 143.033C338.855 145.633 342.655 146.933 347.188 146.933C350.055 146.933 352.588 146.367 354.788 145.233C357.055 144.1 358.855 142.567 360.188 140.633C361.521 138.7 362.188 136.533 362.188 134.133V105.933C362.188 104.4 362.655 103.167 363.588 102.233C364.588 101.3 365.821 100.833 367.288 100.833C368.821 100.833 370.055 101.3 370.988 102.233C371.921 103.167 372.388 104.4 372.388 105.933V150.533C372.388 152 371.921 153.233 370.988 154.233C370.055 155.167 368.821 155.633 367.288 155.633C365.821 155.633 364.588 155.167 363.588 154.233C362.655 153.233 362.188 152 362.188 150.533V149.433C360.121 151.5 357.621 153.133 354.688 154.333C351.755 155.533 348.588 156.133 345.188 156.133ZM395.352 155.633C392.019 155.633 390.352 153.967 390.352 150.633V105.933C390.352 102.6 392.019 100.933 395.352 100.933C398.685 100.933 400.352 102.6 400.352 105.933V107.833C402.352 105.5 404.785 103.667 407.652 102.333C410.585 101 413.752 100.333 417.152 100.333C421.152 100.333 424.119 101 426.052 102.333C428.052 103.6 428.819 105.133 428.352 106.933C428.019 108.333 427.352 109.267 426.352 109.733C425.352 110.133 424.185 110.2 422.852 109.933C418.585 109.067 414.752 109 411.352 109.733C407.952 110.467 405.252 111.833 403.252 113.833C401.319 115.833 400.352 118.367 400.352 121.433V150.633C400.352 153.967 398.685 155.633 395.352 155.633ZM444.085 179.033C442.618 179.033 441.385 178.533 440.385 177.533C439.452 176.6 438.985 175.4 438.985 173.933V128.333C439.052 123.067 440.285 118.333 442.685 114.133C445.085 109.933 448.352 106.633 452.485 104.233C456.618 101.767 461.285 100.533 466.485 100.533C471.752 100.533 476.452 101.767 480.585 104.233C484.718 106.633 487.985 109.933 490.385 114.133C492.852 118.333 494.085 123.067 494.085 128.333C494.085 133.6 492.952 138.333 490.685 142.533C488.485 146.667 485.452 149.967 481.585 152.433C477.718 154.833 473.352 156.033 468.485 156.033C464.552 156.033 460.918 155.233 457.585 153.633C454.318 151.967 451.518 149.733 449.185 146.933V173.933C449.185 175.4 448.718 176.6 447.785 177.533C446.852 178.533 445.618 179.033 444.085 179.033ZM466.485 147.033C469.885 147.033 472.918 146.233 475.585 144.633C478.252 142.967 480.352 140.733 481.885 137.933C483.485 135.067 484.285 131.867 484.285 128.333C484.285 124.733 483.485 121.533 481.885 118.733C480.352 115.867 478.252 113.633 475.585 112.033C472.918 110.367 469.885 109.533 466.485 109.533C463.152 109.533 460.118 110.367 457.385 112.033C454.718 113.633 452.618 115.867 451.085 118.733C449.552 121.533 448.785 124.733 448.785 128.333C448.785 131.867 449.552 135.067 451.085 137.933C452.618 140.733 454.718 142.967 457.385 144.633C460.118 146.233 463.152 147.033 466.485 147.033ZM534.997 156.033C529.464 156.033 524.531 154.867 520.197 152.533C515.931 150.133 512.564 146.867 510.097 142.733C507.697 138.533 506.497 133.733 506.497 128.333C506.497 122.867 507.631 118.067 509.897 113.933C512.231 109.733 515.431 106.467 519.497 104.133C523.564 101.733 528.231 100.533 533.497 100.533C538.697 100.533 543.164 101.7 546.897 104.033C550.631 106.3 553.464 109.467 555.397 113.533C557.397 117.533 558.397 122.167 558.397 127.433C558.397 128.7 557.964 129.767 557.097 130.633C556.231 131.433 555.131 131.833 553.797 131.833H515.797C516.531 136.433 518.631 140.2 522.097 143.133C525.631 146 529.931 147.433 534.997 147.433C537.064 147.433 539.164 147.067 541.297 146.333C543.497 145.533 545.264 144.633 546.597 143.633C547.597 142.9 548.664 142.533 549.797 142.533C550.997 142.467 552.031 142.8 552.897 143.533C554.031 144.533 554.631 145.633 554.697 146.833C554.764 148.033 554.231 149.067 553.097 149.933C550.831 151.733 547.997 153.2 544.597 154.333C541.264 155.467 538.064 156.033 534.997 156.033ZM533.497 109.133C528.564 109.133 524.597 110.5 521.597 113.233C518.597 115.967 516.697 119.5 515.897 123.833H549.197C548.597 119.567 546.964 116.067 544.297 113.333C541.631 110.533 538.031 109.133 533.497 109.133ZM594.254 156.033C589.054 156.033 584.354 154.833 580.154 152.433C576.02 149.967 572.72 146.633 570.254 142.433C567.854 138.233 566.654 133.5 566.654 128.233C566.654 122.967 567.754 118.267 569.954 114.133C572.22 109.933 575.287 106.633 579.154 104.233C583.02 101.767 587.387 100.533 592.254 100.533C596.187 100.533 599.82 101.367 603.154 103.033C606.487 104.633 609.287 106.833 611.554 109.633V82.6334C611.554 81.1 612.02 79.8667 612.954 78.9334C613.954 78 615.187 77.5334 616.654 77.5334C618.187 77.5334 619.42 78 620.354 78.9334C621.287 79.8667 621.754 81.1 621.754 82.6334V128.233C621.754 133.5 620.52 138.233 618.054 142.433C615.654 146.633 612.387 149.967 608.254 152.433C604.12 154.833 599.454 156.033 594.254 156.033ZM594.254 147.033C597.654 147.033 600.687 146.233 603.354 144.633C606.02 142.967 608.12 140.7 609.654 137.833C611.187 134.967 611.954 131.767 611.954 128.233C611.954 124.633 611.187 121.433 609.654 118.633C608.12 115.833 606.02 113.633 603.354 112.033C600.687 110.367 597.654 109.533 594.254 109.533C590.92 109.533 587.887 110.367 585.154 112.033C582.487 113.633 580.354 115.833 578.754 118.633C577.22 121.433 576.454 124.633 576.454 128.233C576.454 131.767 577.22 134.967 578.754 137.833C580.354 140.7 582.487 142.967 585.154 144.633C587.887 146.233 590.92 147.033 594.254 147.033ZM645.866 155.633C644.4 155.633 643.166 155.167 642.166 154.233C641.233 153.233 640.766 152 640.766 150.533V106.033C640.766 104.5 641.233 103.267 642.166 102.333C643.166 101.4 644.4 100.933 645.866 100.933C647.4 100.933 648.633 101.4 649.566 102.333C650.5 103.267 650.966 104.5 650.966 106.033V150.533C650.966 152 650.5 153.233 649.566 154.233C648.633 155.167 647.4 155.633 645.866 155.633ZM645.866 92.0334C644.066 92.0334 642.5 91.4 641.166 90.1334C639.9 88.8 639.266 87.2334 639.266 85.4334C639.266 83.6334 639.9 82.1 641.166 80.8334C642.5 79.5 644.066 78.8334 645.866 78.8334C647.666 78.8334 649.2 79.5 650.466 80.8334C651.8 82.1 652.466 83.6334 652.466 85.4334C652.466 87.2334 651.8 88.8 650.466 90.1334C649.2 91.4 647.666 92.0334 645.866 92.0334ZM692.742 156.033C687.875 156.033 683.509 154.833 679.642 152.433C675.775 149.967 672.709 146.667 670.442 142.533C668.242 138.333 667.142 133.6 667.142 128.333C667.142 123.067 668.342 118.333 670.742 114.133C673.209 109.933 676.509 106.633 680.642 104.233C684.842 101.767 689.542 100.533 694.742 100.533C699.942 100.533 704.609 101.767 708.742 104.233C712.875 106.633 716.142 109.933 718.542 114.133C721.009 118.333 722.242 123.067 722.242 128.333V150.633C722.242 152.1 721.742 153.333 720.742 154.333C719.809 155.267 718.609 155.733 717.142 155.733C715.675 155.733 714.442 155.267 713.442 154.333C712.509 153.333 712.042 152.1 712.042 150.633V146.933C709.709 149.733 706.875 151.967 703.542 153.633C700.275 155.233 696.675 156.033 692.742 156.033ZM694.742 147.033C698.142 147.033 701.175 146.233 703.842 144.633C706.509 142.967 708.609 140.733 710.142 137.933C711.675 135.067 712.442 131.867 712.442 128.333C712.442 124.733 711.675 121.533 710.142 118.733C708.609 115.867 706.509 113.633 703.842 112.033C701.175 110.367 698.142 109.533 694.742 109.533C691.409 109.533 688.375 110.367 685.642 112.033C682.975 113.633 680.842 115.867 679.242 118.733C677.709 121.533 676.942 124.733 676.942 128.333C676.942 131.867 677.709 135.067 679.242 137.933C680.842 140.733 682.975 142.967 685.642 144.633C688.375 146.233 691.409 147.033 694.742 147.033Z" fill="#5A6EB7"/>
<path fill-rule="evenodd" clip-rule="evenodd" d="M149.04 57.6334C166.383 57.6334 177.633 68.8834 177.633 86.2272L177.633 149.04C177.633 166.383 166.383 177.633 149.04 177.633L86.2272 177.633C68.8834 177.633 57.6334 166.383 57.6334 149.04L57.6333 86.2272C57.6333 68.8834 68.8833 57.6334 86.2271 57.6334L149.04 57.6334Z" fill="#5A6EB7"/>
<path d="M137.65 91.2168C141.458 94.0279 144.705 97.5276 147.223 101.535C154.429 86.5355 156.417 75.5438 151.926 72.1774L151.921 72.1737C147.428 68.8109 137.44 73.8028 125.067 84.924C129.617 86.2171 133.885 88.3514 137.65 91.2164L137.65 91.2168Z" fill="white"/>
<path d="M91.5696 153.078L85.8543 148.795C80.5772 158.816 81.3571 162.018 83.6107 163.707C85.8643 165.395 89.1477 165.237 97.2877 157.365L91.5696 153.078Z" fill="white"/>
<path d="M124.556 138.093C129.341 131.239 134.153 123.874 138.897 115.985C141.328 111.941 143.629 107.956 145.799 104.029C140.613 95.7145 132.508 89.6377 123.073 86.9907C119.891 90.2102 116.687 93.5701 113.461 97.0705C107.18 103.892 101.419 110.631 96.1397 117.199C86.3272 117.123 75.3237 122.697 66.6164 134.313L77.1081 142.177C79.0258 143.618 80.5342 143.988 82.0044 142.032L82.0256 141.99L93.2742 150.422L104.891 159.13C103.334 161.201 104.126 162.43 106.054 163.875L116.585 171.769C125.458 159.93 127.671 147.512 124.556 138.093ZM131.883 98.9101C132.746 99.5568 133.398 100.445 133.756 101.462C134.114 102.479 134.162 103.579 133.895 104.624C133.628 105.669 133.057 106.61 132.254 107.331C131.452 108.051 130.454 108.517 129.386 108.669C128.319 108.822 127.23 108.655 126.258 108.189C125.285 107.723 124.473 106.979 123.923 106.052C123.374 105.124 123.112 104.054 123.17 102.977C123.228 101.901 123.605 100.866 124.251 100.003C125.119 98.846 126.41 98.0812 127.841 97.8763C129.272 97.6714 130.726 98.0432 131.883 98.9101ZM121.231 113.121C122.094 113.768 122.746 114.656 123.103 115.673C123.461 116.69 123.51 117.79 123.242 118.835C122.975 119.879 122.404 120.821 121.602 121.541C120.799 122.261 119.801 122.726 118.734 122.879C117.666 123.032 116.578 122.865 115.606 122.399C114.633 121.933 113.822 121.189 113.272 120.261C112.722 119.334 112.46 118.265 112.519 117.188C112.577 116.111 112.953 115.076 113.6 114.214C114.467 113.057 115.759 112.292 117.189 112.087C118.621 111.883 120.074 112.255 121.231 113.121ZM104.04 136.057C103.177 135.41 102.526 134.522 102.168 133.505C101.81 132.488 101.761 131.388 102.029 130.343C102.296 129.299 102.867 128.357 103.67 127.637C104.472 126.917 105.47 126.452 106.537 126.299C107.605 126.146 108.693 126.313 109.665 126.779C110.638 127.245 111.45 127.989 111.999 128.917C112.549 129.844 112.811 130.914 112.752 131.991C112.694 133.067 112.318 134.102 111.671 134.965C111.242 135.537 110.704 136.02 110.088 136.385C109.472 136.75 108.79 136.99 108.081 137.091C107.373 137.193 106.651 137.153 105.957 136.976C105.264 136.798 104.612 136.486 104.039 136.057L104.04 136.057Z" fill="white"/>
<path d="M130.522 100.731C129.847 100.24 129.005 100.035 128.18 100.159C127.354 100.283 126.611 100.727 126.11 101.396C125.609 102.064 125.391 102.902 125.503 103.729C125.616 104.557 126.049 105.307 126.71 105.817C127.384 106.323 128.232 106.539 129.066 106.42C129.901 106.301 130.653 105.855 131.159 105.18C131.664 104.506 131.881 103.658 131.762 102.824C131.642 101.989 131.196 101.237 130.522 100.731Z" fill="white"/>
<path d="M119.87 114.943L119.865 114.939C119.19 114.448 118.349 114.242 117.523 114.367C116.697 114.491 115.954 114.935 115.453 115.603C114.952 116.271 114.734 117.11 114.847 117.937C114.959 118.765 115.392 119.515 116.053 120.025C116.727 120.531 117.575 120.748 118.41 120.628C119.244 120.509 119.997 120.063 120.503 119.389C121.009 118.714 121.226 117.867 121.106 117.032C120.987 116.198 120.541 115.445 119.867 114.939L119.87 114.943Z" fill="white"/>
<path d="M109.217 129.154L109.215 129.152C108.54 128.661 107.698 128.455 106.872 128.58C106.047 128.704 105.303 129.148 104.803 129.816C104.302 130.484 104.084 131.323 104.196 132.15C104.308 132.978 104.742 133.728 105.403 134.238C106.077 134.743 106.924 134.961 107.759 134.841C108.594 134.721 109.346 134.276 109.852 133.601C110.357 132.927 110.574 132.08 110.455 131.245C110.335 130.411 109.889 129.658 109.215 129.152L109.217 129.154Z" fill="white"/>
</svg>
